<svg width="502" height="349" viewBox="0 0 502 349" fill="none" xmlns="http://www.w3.org/2000/svg">
<path d="M489.135 135.273C500.984 160.713 502.526 186.901 501.874 217.821C499.378 232.302 483.803 256.114 482.279 264.434C477.048 282.946 464.823 303.176 455.03 316.098C443.384 326.996 435.925 338.197 419.503 341.948C387.472 349.264 349.569 350.635 314.527 347.226C288.572 344.701 263.688 345.008 227.485 339.59C186.827 333.506 158.306 328.269 148.115 326.175C119.701 320.334 100.087 313.62 73.7015 282.375C30.3822 231.077 19.4594 220.554 11.7512 209.288C4.09692 198.101 -7.82673 177.999 7.2449 145.555C21.9386 113.925 43.0041 81.6247 65.9737 65.5546C75.7573 58.7097 83.4818 52.6799 94.4525 47.0355C113.093 37.4452 130.051 31.9777 151.052 24.9952C179.393 15.5722 210.396 1.64602 256.184 0.422359C293.749 -0.581549 334.632 -0.0725837 365.262 5.016C380.461 7.54096 388.91 7.81654 396.384 10.3321C409.242 14.6596 432.2 23.933 452.809 63.1589C463.355 83.2294 480.041 115.748 489.135 135.273Z" fill="#F5510A"/>
</svg>
