<svg width="1137" height="1385" viewBox="0 0 1137 1385" fill="none" xmlns="http://www.w3.org/2000/svg">
<path d="M731.51 153.678C714.061 144.168 700.456 135.113 695.178 131.337C686.066 118.79 689.544 121.735 648 101C617.044 85.5494 597.275 74.508 558.22 60.0256C548.005 56.2377 531.684 51.5729 495.657 38.6516C469.903 29.4149 430.659 12.14 404.029 6.89194C365.933 -0.615701 350.076 1.12763 322.765 1.28397C257.186 1.65935 212.101 3.36568 200.197 3.55902C177.082 3.9344 157.899 5.07123 151.772 11.5672C145.345 18.3809 120.787 52.2824 89.7886 115.104C60.3041 174.858 41.789 211.403 40.7046 225.455C37.6901 264.518 38.588 327.616 49.1222 351.402C66.5832 390.828 81.8112 409.156 87.7752 428.287C94.5662 450.071 88.3116 490.262 69.4838 543.654C62.6928 562.913 38.2986 601.084 25.4731 655.973C14.9397 701.053 11.4917 739.037 7.34104 762.366C3.56445 783.592 -0.674807 803.417 1.67619 825.305C2.8137 835.895 22.4825 857.701 52.7396 900.666C87.9231 950.626 127.978 989.967 128.316 1017.3C128.692 1047.61 125.056 1089.63 118.42 1127.62C114.268 1151.4 114.68 1164.81 110.833 1175.31C99.8443 1205.29 86.6934 1229.12 94.225 1252.68C99.9126 1270.47 106.94 1282.34 113.199 1287.87C122.367 1332.24 224.207 1411.6 558.22 1374C892.233 1336.4 1083.04 1193.16 1136 1138C1130.32 1126.23 1125.96 1072.01 1129.34 1021.93C1131.26 993.397 1133.55 929.675 1132.36 886.868C1131.21 845.61 1129.11 830.55 1127.81 809.982C1126.66 791.782 1124.68 770.596 1123.26 750.467C1122.11 734.133 1119.26 717.65 1116.81 689.018C1115.29 671.205 1108.2 649.787 1102.01 634.076C1096.31 619.607 1094.34 599.962 1080.74 569.51C1065.19 534.702 1056.56 518.536 1047.75 504.353C1030.29 476.234 1016.54 457.807 1003.79 437.649C994.665 423.225 984.885 410.103 975.736 395.572C967.364 382.274 955.915 364.565 948.06 348.922C940.064 332.997 932.813 319.124 921.09 306.049C898.294 280.625 877.702 262.038 858.549 243.906C844.466 230.574 830.155 214.09 811.489 201.795C779.127 180.478 748.108 162.723 731.51 153.678Z" fill="#BF2D04" stroke="black" stroke-linecap="round"/>
</svg>
