<svg width="755" height="1278" viewBox="0 0 755 1278" fill="none" xmlns="http://www.w3.org/2000/svg">
<path d="M232.742 5.93012C185.865 -7.82414 183.058 6.77221 175.454 5.93011C149.106 11.8759 143.229 16.0562 127.684 27.2761C106.453 42.5997 93.7566 52.2338 82.6318 70.2614C68.1757 93.6871 57.3713 113.493 53.3241 136.621C48.6288 163.454 38.8784 184.995 35.8952 212.729C33.3179 236.691 29.1646 265.523 26.0963 289.858C18.8746 347.133 15.0513 372.483 12.9289 413.111C11.2192 445.838 5.80135 481.341 2.70889 564.79C1.01192 610.583 -0.542103 687.22 0.182563 729.433C1.03744 779.232 0.468105 801.626 2.31336 826.071C4.43134 854.128 4.27598 876.349 7.85081 904.743C12.0868 938.389 17.7702 978.982 26.5684 1006.34C33.42 1027.65 47.6856 1055.6 58.8998 1088C66.5935 1110.23 70.7051 1148.93 126.191 1203.32C147.384 1224.09 159.703 1240.6 175.454 1245.73C192.551 1251.29 211.958 1263.29 246.969 1270.41C274.209 1275.94 338.947 1278.69 380.059 1277.18C391.516 1276.76 430.854 1273.26 480.587 1255.41C508.925 1245.24 519.7 1235.9 531.075 1229.47C563.381 1211.23 580.339 1202.75 598.213 1186.12C616.153 1169.43 638.827 1148.8 651.355 1124.42C668.975 1090.12 696.608 1045.42 705.402 1020.11C722.359 971.307 737.459 939.771 743.195 890.899C747.061 857.956 753.999 820.862 754.244 783.825C754.665 720.055 752.724 676.206 752.534 657.664C752.113 616.426 751.347 583.365 749.115 568.503C744.458 537.499 738.546 506.668 733.817 485.212C729.963 467.732 725.618 449.723 714.193 426.865C695.922 390.31 681.435 363.8 662.685 337.96C634.679 299.363 624.618 285.658 586.577 241.463C568.28 220.206 553.327 202.949 537.697 189.202C519.796 173.457 499.747 155.476 479.005 142.006C461.972 130.944 446.802 116.657 422.01 99.9007C404.964 88.3793 381.906 75.1753 361.609 64.1881C340.301 52.6538 317.843 40.0592 296.078 30.1469C267.166 16.9795 248.923 10.6778 232.742 5.93012Z" fill="#F5510A"/>
</svg>
