<svg width="412" height="1105" viewBox="0 0 412 1105" fill="none" xmlns="http://www.w3.org/2000/svg">
<path d="M290.635 1013.49C281.704 1032.22 273.288 1050.52 262.132 1063.66C248.505 1072.21 227.254 1089.99 211.504 1093.82C195.759 1097.65 179.498 1109.51 146.828 1101.45C127.677 1096.73 85.3323 1062.07 60.9083 1029.89C36.7299 998.027 21.8312 982.722 16.3281 959.763C11.2117 938.417 1.22722 913.121 0.608954 854.028C0.187911 813.786 -0.526329 742.193 0.621713 704.25C1.8976 662.081 1.79572 646.547 3.17349 627.134C5.29146 597.29 5.00626 568.315 8.27707 544.672C10.3952 529.361 11.7575 514.041 13.3808 499.607C15.4988 480.774 18.4713 457.232 20.6151 431.869C24.0219 391.563 24.6963 372.173 36.3854 331.493C46.9881 294.594 53.7294 281.561 55.4857 260.132C57.1954 239.271 61.0258 221.004 63.1412 203.15C65.7185 181.395 69.9657 159.141 74.6371 144.037C80.1617 126.174 82.9552 110.637 91.2622 91.648C107.415 54.7233 118.248 38.1148 133.367 27.1C149.112 15.6295 159.398 2.1262 173.762 0.344119C180.55 -0.497983 187.445 0.199726 194.177 2.50048C207.804 7.15749 221.869 8.42415 237.57 13.1287C254.604 18.2324 271.743 18.3877 289.053 30.5959C309.008 44.6692 317.477 59.9303 323.465 77.0262C334.476 108.465 335.332 125.681 344.721 156.553C352.338 181.6 358.249 205.246 362.992 226.716C369.385 255.653 378.414 275.014 383.828 305.375C387.247 324.552 395.157 347.938 400.848 367.027C405.927 384.061 410.053 404.369 410.609 457.042C411.03 496.902 411.77 571.022 410.596 609.794C409.32 651.95 410.72 665.932 408.044 683.057C405.059 702.17 403.19 715.7 398.679 734.501C393.984 754.074 388.885 769.324 382.935 782.96C376.989 796.587 371.045 809.918 367.203 824.657C362.546 842.52 358.606 863.368 351.892 879.929C346.367 893.556 341.142 907.08 334.45 922.889C328.504 936.937 319.974 947.973 314.036 962.455C306.355 981.185 297.936 998.18 290.635 1013.49Z" fill="#F5510A"/>
</svg>
