<svg width="686" height="1241" viewBox="0 0 686 1241" fill="none" xmlns="http://www.w3.org/2000/svg">
<path d="M495.772 3.03335C550.139 -2.45297 599.541 0.733615 609.469 3.03334C670.272 17.1178 682.657 14.3002 685.272 198.618C687.888 382.935 616.716 713.952 619.229 895.118C621.743 1076.28 620.518 1102.94 619.229 1110.2C617.941 1117.46 616.43 1124.26 612.812 1133.64C598.394 1171 595.224 1191.84 567.632 1205.88C525.973 1227.09 483.369 1232.97 448.169 1235.99C433.317 1237.27 377.62 1245.31 305.075 1237.68C251.96 1232.09 205.899 1222.66 176.426 1210.86C155.144 1202.34 111.632 1182.99 92.2541 1158.1C80.3245 1142.78 63.2651 1123.54 52.701 1105.76C37.7601 1080.61 22.3317 1061.66 17.0011 1029.63C14.0282 1011.77 -0.336996 988.396 0.00604253 953.827C0.452603 908.826 3.25567 888.526 4.26751 861.158C5.55622 826.3 8.09504 792.334 9.37125 762.874C11.5275 713.101 15.8073 686.092 18.7618 638.627C20.9181 603.986 24.2865 540.828 29.4412 492.765C34.5959 444.701 39.4692 412.016 49.0392 388.893C65.1667 349.927 73.24 328.291 79.5844 320.249C92.369 304.045 111.428 277.468 136.171 247.931C160.605 218.764 195.063 182.133 206.754 166.286C219.96 148.385 235.312 129.325 265.484 107.594C297.637 84.4362 349.255 50.2877 372.214 41.7061C389.247 35.3393 411.416 11.546 495.772 3.03335Z" fill="#F5510A"/>
</svg>
