<svg width="670" height="1244" viewBox="0 0 670 1244" fill="none" xmlns="http://www.w3.org/2000/svg">
<path d="M498.656 8.21275C553.023 2.72642 569 -5.5 609.469 5.27816C657.346 18.0295 666.384 28.6822 669 213C671.616 397.317 616.333 735.276 618.847 916.442C621.36 1097.61 620.518 1105.19 619.229 1112.45C617.941 1119.71 616.43 1126.51 612.812 1135.89C598.394 1173.24 595.224 1194.08 567.632 1208.13C525.973 1229.33 483.369 1235.21 448.169 1238.24C433.317 1239.51 377.62 1247.55 305.075 1239.92C251.96 1234.33 205.899 1224.91 176.426 1213.1C155.144 1204.58 111.632 1185.23 92.2541 1160.34C80.3245 1145.02 63.2651 1125.79 52.701 1108.01C37.7601 1082.86 22.3317 1063.9 17.0011 1031.87C14.0282 1014.01 -0.336996 990.64 0.00604253 956.071C0.452603 911.07 3.25567 890.771 4.26751 863.402C5.55622 828.544 8.09504 794.578 9.37125 765.119C11.5275 715.346 15.8073 688.336 18.7618 640.871C20.9181 606.23 24.2865 543.073 29.4412 495.01C34.5959 446.946 39.4692 414.26 49.0392 391.138C65.1667 352.172 73.24 330.535 79.5844 322.494C92.369 306.29 111.428 279.713 136.171 250.176C160.605 221.008 195.063 184.378 206.754 168.53C219.96 150.629 235.312 131.57 265.484 109.839C297.637 86.681 349.255 52.5325 372.214 43.9509C389.247 37.5841 414.3 16.7254 498.656 8.21275Z" fill="#BF2D04"/>
</svg>
