<svg width="20" height="45" viewBox="0 0 20 45" fill="none" xmlns="http://www.w3.org/2000/svg">
<path d="M3.5 -2.35372e-07C5.15685 -3.46792e-07 6.5 1.34315 6.5 3L6.5 41.1673C6.5 42.8242 5.15685 44.1673 3.5 44.1673L2.99995 44.1673C1.3431 44.1673 -5.1463e-05 42.8242 -5.13905e-05 41.1673L-4.97222e-05 3C-4.96498e-05 1.34315 1.3431 -9.0324e-08 2.99995 -2.01744e-07L3.5 -2.35372e-07Z" fill="#F2E09A"/>
<path d="M16.5 -2.35372e-07C18.1569 -3.46792e-07 19.5 1.34315 19.5 3L19.5 41.1673C19.5 42.8242 18.1569 44.1673 16.5 44.1673L16 44.1673C14.3431 44.1673 12.9999 42.8242 12.9999 41.1673L13 3C13 1.34315 14.3431 -9.0324e-08 16 -2.01744e-07L16.5 -2.35372e-07Z" fill="#F2E09A"/>
</svg>
